<?xml version="1.0" encoding="utf-8"?>
<!-- Generator: Adobe Illustrator 23.0.5, SVG Export Plug-In . SVG Version: 6.00 Build 0)  -->
<svg version="1.1" id="Capa_1" xmlns="http://www.w3.org/2000/svg" xmlns:xlink="http://www.w3.org/1999/xlink" x="0px" y="0px"
	 viewBox="0 0 120 84" style="enable-background:new 0 0 120 84;" xml:space="preserve">
<style type="text/css">
	.st0{fill:#00B282;}
	.st1{fill:url(#SVGID_1_);}
</style>
<g>
	<g>
		<path class="st0" d="M32.3,12.9l-7.6-1.4c0.6-2.4,1.9-4.3,3.7-5.6C30.1,4.7,32.6,4,35.9,4c3.8,0,6.5,0.7,8.2,2.1
			c1.7,1.4,2.5,3.2,2.5,5.3c0,1.3-0.3,2.4-1,3.4c-0.7,1-1.7,1.9-3.1,2.7c1.1,0.3,2,0.6,2.6,1c1,0.6,1.7,1.4,2.3,2.4
			c0.5,1,0.8,2.1,0.8,3.5c0,1.7-0.4,3.3-1.3,4.9s-2.2,2.8-3.8,3.6c-1.7,0.8-3.9,1.3-6.6,1.3c-2.6,0-4.7-0.3-6.3-0.9
			c-1.5-0.6-2.8-1.5-3.8-2.7c-1-1.2-1.7-2.7-2.3-4.5l8.1-1.1c0.3,1.6,0.8,2.8,1.5,3.4c0.7,0.6,1.5,0.9,2.6,0.9c1.1,0,2-0.4,2.7-1.2
			c0.7-0.8,1.1-1.9,1.1-3.2c0-1.4-0.3-2.4-1-3.1c-0.7-0.7-1.6-1.1-2.8-1.1c-0.6,0-1.5,0.2-2.6,0.5l0.4-5.8c0.5,0.1,0.8,0.1,1.1,0.1
			c1.1,0,1.9-0.3,2.7-1c0.7-0.7,1.1-1.5,1.1-2.4c0-0.9-0.3-1.6-0.8-2.1C37.4,9.3,36.7,9,35.8,9c-1,0-1.7,0.3-2.3,0.9
			C32.9,10.5,32.5,11.5,32.3,12.9z"/>
		<path class="st0" d="M74.9,11.1l-8,1c-0.2-1.1-0.6-1.9-1.1-2.4S64.7,9,64,9c-1.3,0-2.3,0.7-3.1,2c-0.5,1-0.9,3-1.2,6.1
			c1-1,2-1.7,3-2.2c1-0.5,2.2-0.7,3.5-0.7c2.6,0,4.8,0.9,6.6,2.8c1.8,1.9,2.7,4.2,2.7,7c0,1.9-0.5,3.7-1.4,5.3s-2.2,2.8-3.8,3.6
			c-1.6,0.8-3.6,1.2-6,1.2c-2.9,0-5.2-0.5-7-1.5c-1.8-1-3.2-2.6-4.2-4.8c-1.1-2.2-1.6-5.1-1.6-8.6c0-5.3,1.1-9.1,3.3-11.5
			C57.1,5.2,60.2,4,64.1,4c2.3,0,4.1,0.3,5.5,0.8s2.5,1.3,3.3,2.4C73.8,8.2,74.5,9.5,74.9,11.1z M60,24c0,1.6,0.4,2.8,1.2,3.7
			c0.8,0.9,1.8,1.3,2.9,1.3c1.1,0,1.9-0.4,2.7-1.2c0.7-0.8,1.1-2,1.1-3.6c0-1.6-0.4-2.9-1.1-3.8c-0.7-0.9-1.7-1.3-2.8-1.3
			c-1.1,0-2.1,0.4-2.8,1.3C60.4,21.3,60,22.5,60,24z"/>
		<path class="st0" d="M81.9,4.5h19.2V11h-13l-0.7,4.4c0.9-0.4,1.8-0.7,2.7-1c0.9-0.2,1.8-0.3,2.6-0.3c2.9,0,5.3,0.9,7.1,2.6
			s2.7,4,2.7,6.7c0,1.9-0.5,3.7-1.4,5.4c-0.9,1.7-2.3,3.1-4,4c-1.7,0.9-3.9,1.4-6.6,1.4c-1.9,0-3.6-0.2-4.9-0.5
			c-1.4-0.4-2.5-0.9-3.5-1.6c-1-0.7-1.7-1.5-2.3-2.5c-0.6-0.9-1.1-2.1-1.5-3.4l8.2-0.9c0.2,1.3,0.7,2.3,1.4,3c0.7,0.7,1.6,1,2.6,1
			c1.1,0,2.1-0.4,2.8-1.3c0.7-0.9,1.1-2.1,1.1-3.8c0-1.7-0.4-3-1.1-3.8s-1.7-1.2-3-1.2c-0.8,0-1.5,0.2-2.3,0.6
			c-0.5,0.3-1.1,0.8-1.8,1.5l-6.9-1L81.9,4.5z"/>
	</g>
	<g>
		<path class="st0" d="M35.9,40.3h6.9c1.4,0,2.5,0.2,3.3,0.6s1.5,0.9,2.1,1.6s0.9,1.5,1.2,2.4s0.4,1.9,0.4,2.9
			c0,1.6-0.2,2.9-0.5,3.7c-0.4,0.9-0.9,1.6-1.5,2.2s-1.3,1-2.1,1.2c-1,0.3-1.9,0.4-2.8,0.4h-6.9V40.3z M40.5,43.7v8.2h1.1
			c1,0,1.7-0.1,2.1-0.3s0.7-0.6,1-1.1c0.2-0.5,0.3-1.4,0.3-2.6c0-1.6-0.3-2.7-0.8-3.3s-1.4-0.9-2.6-0.9H40.5z"/>
		<path class="st0" d="M52.3,40.3H57v15h-4.7V40.3z M54.6,36.4h3.6l-3.3,3.1h-2L54.6,36.4z"/>
		<path class="st0" d="M69.6,52.9h-5.3l-0.7,2.5h-4.7l5.6-15h5.1l5.6,15h-4.9L69.6,52.9z M68.6,49.6L67,44.2l-1.6,5.4H68.6z"/>
		<path class="st0" d="M75.9,50.4l4.4-0.3c0.1,0.7,0.3,1.3,0.6,1.6c0.5,0.6,1.2,0.9,2.1,0.9c0.7,0,1.2-0.2,1.5-0.5
			c0.4-0.3,0.5-0.7,0.5-1.1c0-0.4-0.2-0.7-0.5-1c-0.3-0.3-1.1-0.6-2.4-0.9c-2-0.5-3.5-1.1-4.4-1.8c-0.9-0.8-1.3-1.7-1.3-2.9
			c0-0.8,0.2-1.5,0.7-2.2c0.4-0.7,1.1-1.2,2-1.6c0.9-0.4,2.1-0.6,3.7-0.6c1.9,0,3.4,0.4,4.4,1.1c1,0.7,1.6,1.9,1.8,3.4l-4.4,0.3
			c-0.1-0.7-0.4-1.2-0.7-1.5c-0.4-0.3-0.9-0.5-1.5-0.5c-0.5,0-0.9,0.1-1.2,0.3s-0.4,0.5-0.4,0.8c0,0.2,0.1,0.5,0.3,0.6
			c0.2,0.2,0.7,0.4,1.6,0.6c2,0.4,3.5,0.9,4.4,1.3c0.9,0.4,1.5,1,1.9,1.7c0.4,0.7,0.6,1.4,0.6,2.2c0,1-0.3,1.9-0.8,2.7
			c-0.5,0.8-1.3,1.4-2.2,1.9c-1,0.4-2.2,0.6-3.6,0.6c-2.6,0-4.3-0.5-5.3-1.5S76,51.9,75.9,50.4z"/>
	</g>
	<path class="st0" d="M3,32.6c-3.2,13.8,19.4,30.9,50.5,38.2c0.4,0.1,0.9,0.2,1.3,0.3l-1.6,8.1l15.8-5.7l4.5-1.6L71,69.6L57.5,58
		l-1.8,9c0,0,0,0-0.1,0C27.1,60.3,6.4,44.9,9.3,32.5c1.4-6.1,8.4-10.4,18.6-12.2v-2.2C14.4,19.8,4.9,24.8,3,32.6z"/>
	<linearGradient id="SVGID_1_" gradientUnits="userSpaceOnUse" x1="77.9797" y1="54.5938" x2="116.1214" y2="54.5938">
		<stop  offset="0.1443" style="stop-color:#00B282;stop-opacity:0"/>
		<stop  offset="1" style="stop-color:#00B282"/>
	</linearGradient>
	<path class="st1" d="M100.1,35.2v1.5c9,6.4,13.9,13.6,12.4,20.1c-2.1,9-16.1,13.9-34.5,13.3l0.9,4c19.7,0.3,34.6-5.1,37-15
		C117.6,51.3,111.4,42.6,100.1,35.2z"/>
</g>
</svg>
