<?xml version="1.0" encoding="utf-8"?>
<!-- Generator: Adobe Illustrator 23.0.5, SVG Export Plug-In . SVG Version: 6.00 Build 0)  -->
<svg version="1.1" id="Capa_1" xmlns="http://www.w3.org/2000/svg" xmlns:xlink="http://www.w3.org/1999/xlink" x="0px" y="0px"
	 viewBox="0 0 83 84" style="enable-background:new 0 0 83 84;" xml:space="preserve">
<style type="text/css">
	.st0{fill:#00B282;}
	.st1{fill:url(#SVGID_1_);}
</style>
<g>
	<path class="st0" d="M15.4,55.1v-3l6-9.4c0.1-0.1,0.3-0.5,0.7-1.1c0.4-0.6,0.7-1,0.8-1.2c0.1-0.2,0.3-0.6,0.5-1.1s0.4-0.9,0.5-1.4
		s0.1-0.9,0.1-1.3c0-1-0.2-1.7-0.5-2.2c-0.3-0.5-0.9-0.7-1.6-0.7c-1.5,0.1-2.3,1.4-2.3,4v1h-4.2v-1.1c0-1.1,0.1-2.1,0.4-3
		c0.2-0.9,0.6-1.7,1.1-2.3c0.5-0.7,1.2-1.2,2-1.5s1.8-0.5,3-0.5c2.1,0,3.7,0.6,4.7,1.7c1.1,1.1,1.6,2.7,1.6,4.8c0,0.7-0.1,1.4-0.2,2
		s-0.3,1.2-0.6,1.8c-0.3,0.6-0.6,1.1-0.8,1.5s-0.6,0.9-1,1.6c0,0.1-0.1,0.1-0.1,0.2c0,0-0.1,0.1-0.1,0.1c0,0.1-0.1,0.1-0.1,0.2
		l-5.1,7.7h7.4v3.4H15.4z"/>
	<path class="st0" d="M37.6,55.1v-6h-7.3v-3.9l6.3-14.8h5v15.2h2.6v3.5h-2.6v6H37.6z M34,45.5h3.6V35.1L34,45.5z"/>
	<path class="st0" d="M45.9,55.1l7-24.7h2.9l-7,24.7H45.9z"/>
	<path class="st0" d="M59.8,55.1l4.8-21.4h-6.5v-3.2h10.7v2.5l-4.9,22.2H59.8z"/>
</g>
<g>
	<g>
		<g>
			<g>
				<g>
					<path class="st0" d="M73.4,55.2l2.2,0.7c-7.2,18.5-28,27.7-46.5,20.5C19,72.4,11.2,64.2,7.9,53.8c-0.2-0.7-0.9-1-1.6-0.8
						c-0.7,0.2-1,0.9-0.8,1.6C12,74.8,33.6,85.9,53.8,79.4c11.1-3.5,20-12,24.2-22.8l2.4,0.7l0.6-13.9L73.4,55.2z"/>
					<path class="st0" d="M8.6,29.9c7.2-18.5,28-27.7,46.5-20.5c10.2,4,18.1,12.4,21.3,22.8c0.2,0.5,0.6,0.9,1.2,0.9
						c0.1,0,0.3,0,0.4-0.1c0.7-0.2,1-0.9,0.8-1.6c0,0,0,0,0,0C72.5,11.2,51-0.1,30.7,6.2c-11.2,3.5-20.2,12-24.5,22.9l-2.3-0.7
						L3.4,42.3l7.4-11.8L8.6,29.9z"/>
				</g>
			</g>
		</g>
	</g>
</g>
</svg>
